Coordinates
version=1
nRows=34
nColumns=38
inDegrees=no

Units are S.I. units (second, meters, Newtons, ...)
If the header above contains a line with 'inDegrees', this indicates whether rotational values are in degrees (yes) or radians (no).

endheader
time	pelvis_tilt	pelvis_list	pelvis_rotation	pelvis_tx	pelvis_ty	pelvis_tz	hip_flexion_r	hip_adduction_r	hip_rotation_r	knee_angle_r	ankle_angle_r	subtalar_angle_r	mtp_angle_r	hip_flexion_l	hip_adduction_l	hip_rotation_l	knee_angle_l	ankle_angle_l	subtalar_angle_l	mtp_angle_l	lumbar_extension	lumbar_bending	lumbar_rotation	arm_flex_r	arm_add_r	arm_rot_r	elbow_flex_r	pro_sup_r	wrist_flex_r	wrist_dev_r	arm_flex_l	arm_add_l	arm_rot_l	elbow_flex_l	pro_sup_l	wrist_flex_l	wrist_dev_l
15	2.6067	1.35971	-1.05804	0.492674	1.12703	0.943471	-0.154129	0.0838632	-0.372841	0.216496	0.0193652	0	0	0.158685	-0.332562	-0.338861	0.461697	-0.0406184	0	0	-0.432789	-0.0198124	0.0236133	-0.22596	-0.807252	-0.377653	1.82178	1.5708	0	0	0.116607	-0.685943	-0.282534	1.71004	1.5708	0	0
15.01	2.60864	1.35745	-1.05388	0.49429	1.12448	0.943628	-0.156203	0.0895345	-0.375339	0.210964	0.0157638	0	0	0.159012	-0.337869	-0.352987	0.497427	-0.0271692	0	0	-0.429373	-0.0164911	0.028087	-0.225848	-0.80473	-0.378411	1.8223	1.5708	0	0	0.10582	-0.65564	-0.27262	1.76217	1.5708	0	0
15.02	2.60822	1.35565	-1.04744	0.495759	1.12196	0.943688	-0.156366	0.0945191	-0.378724	0.208053	0.0127871	0	0	0.159098	-0.342246	-0.362527	0.532724	-0.0128859	0	0	-0.425007	-0.0128538	0.0329876	-0.226575	-0.802495	-0.38001	1.82132	1.5708	0	0	0.0966077	-0.628604	-0.253632	1.81095	1.5708	0	0
15.03	2.60936	1.35412	-1.04288	0.497124	1.11945	0.943761	-0.155492	0.0982937	-0.383045	0.207121	0.0103217	0	0	0.156787	-0.344197	-0.366282	0.564811	0.0016154	0	0	-0.420458	-0.00976262	0.0385033	-0.228598	-0.800563	-0.382329	1.8192	1.5708	0	0	0.090363	-0.604797	-0.226628	1.85456	1.5708	0	0
15.04	2.60728	1.35379	-1.03471	0.498501	1.11718	0.943735	-0.153523	0.102488	-0.38595	0.205525	0.00771032	0	0	0.155021	-0.345733	-0.368022	0.596692	0.0164164	0	0	-0.414443	-0.00708762	0.0464788	-0.22681	-0.76623	-0.526601	1.85485	0.43354	0	0	0.0895916	-0.583029	-0.190916	1.89293	1.5708	0	0
15.05	2.60739	1.35093	-1.02946	0.499621	1.11454	0.943791	-0.153592	0.107073	-0.388972	0.203767	0.00485264	0	0	0.150333	-0.347283	-0.368419	0.628624	0.0310267	0	0	-0.410806	-0.00319946	0.0495152	-0.232431	-0.795217	-0.388715	1.81343	1.5708	0	0	0.0840653	-0.563568	-0.159134	1.92912	1.5708	0	0
15.06	2.61209	1.34901	-1.02846	0.50073	1.11208	0.943875	-0.153401	0.110287	-0.391643	0.202748	0.00268106	0	0	0.143572	-0.346419	-0.369501	0.656375	0.0416691	0	0	-0.407175	-0.00104551	0.054144	-0.232833	-0.79231	-0.391287	1.80955	1.5708	0	0	0.0839548	-0.545147	-0.119816	1.95966	1.5708	0	0
15.07	2.61898	1.34664	-1.02942	0.501733	1.10961	0.943995	-0.15387	0.113129	-0.394731	0.201809	0.00053226	0	0	0.134223	-0.344361	-0.370669	0.680211	0.0501657	0	0	-0.404466	0.000898563	0.0582518	-0.232648	-0.789496	-0.393551	1.80543	1.5708	0	0	0.0858501	-0.527422	-0.0774241	1.9867	1.5708	0	0
15.08	2.62643	1.34434	-1.03048	0.502594	1.1071	0.944122	-0.154474	0.115751	-0.398034	0.20044	-0.00163075	0	0	0.123801	-0.341281	-0.371729	0.70132	0.0576942	0	0	-0.401918	0.00275479	0.0616728	-0.231798	-0.786287	-0.395761	1.80103	1.5708	0	0	0.0906992	-0.510092	-0.0318162	2.01037	1.5708	0	0
15.09	2.63336	1.34228	-1.03048	0.50332	1.10449	0.944242	-0.154922	0.11834	-0.401684	0.198542	-0.00412077	0	0	0.112872	-0.337233	-0.370927	0.719925	0.0647486	0	0	-0.399544	0.00461812	0.0642338	-0.230337	-0.782939	-0.397729	1.79625	1.5708	0	0	0.0978677	-0.493644	0.0148214	2.02948	1.5708	0	0
15.1	2.63874	1.34054	-1.02827	0.503971	1.10174	0.944313	-0.154424	0.120942	-0.40614	0.197118	-0.00692134	0	0	0.101378	-0.332399	-0.368425	0.735326	0.0715018	0	0	-0.397273	0.00650122	0.0656863	-0.22769	-0.779248	-0.399215	1.79097	1.5708	0	0	0.106354	-0.478623	0.0612483	2.04336	1.5708	0	0
15.11	2.64129	1.33929	-1.02257	0.504623	1.09881	0.944272	-0.152314	0.123837	-0.41135	0.196517	-0.0102444	0	0	0.0901828	-0.327715	-0.365987	0.748245	0.0788353	0	0	-0.394798	0.00827799	0.06586	-0.223244	-0.774927	-0.39977	1.78482	1.5708	0	0	0.116368	-0.464093	0.107258	2.05261	1.5708	0	0
15.12	2.64489	1.33823	-1.01816	0.505222	1.09577	0.944242	-0.149725	0.126038	-0.416868	0.196532	-0.0128119	0	0	0.0778546	-0.322185	-0.363731	0.758388	0.0855421	0	0	-0.392789	0.00939223	0.0654433	-0.21716	-0.770658	-0.399126	1.77767	1.5708	0	0	0.127915	-0.44914	0.153657	2.0589	1.5708	0	0
15.13	2.64985	1.33703	-1.0151	0.505744	1.0926	0.94427	-0.147024	0.127688	-0.422601	0.197109	-0.0151723	0	0	0.0642299	-0.315968	-0.361764	0.765211	0.0901836	0	0	-0.39155	0.0101238	0.0641641	-0.20893	-0.766614	-0.396693	1.76929	1.5708	0	0	0.141868	-0.434515	0.20095	2.06202	1.5708	0	0
15.14	2.65252	1.33607	-1.00941	0.506156	1.08924	0.94424	-0.143545	0.12964	-0.428515	0.197665	-0.0177699	0	0	0.0498734	-0.309371	-0.359549	0.767684	0.0948172	0	0	-0.390212	0.0113237	0.0618387	-0.198656	-0.763027	-0.392417	1.76001	1.5708	0	0	0.158227	-0.419745	0.249633	2.06175	1.5708	0	0
15.15	2.65305	1.33708	-1.00115	0.506558	1.0858	0.944093	-0.136971	0.13048	-0.436306	0.199958	-0.0200988	0	0	0.0366909	-0.301795	-0.356926	0.766536	0.0991038	0	0	-0.387879	0.011447	0.0617834	-0.183038	-0.726276	-0.536246	1.7906	0.4101	0	0	0.180324	-0.404932	0.30472	2.05623	1.5708	0	0
15.16	2.65164	1.33724	-0.990916	0.506786	1.08205	0.943877	-0.129885	0.131759	-0.444843	0.203451	-0.0221965	0	0	0.0231095	-0.295218	-0.354677	0.763563	0.104673	0	0	-0.385811	0.0126389	0.0580034	-0.169722	-0.722288	-0.531257	1.7789	0.421659	0	0	0.201061	-0.391004	0.354907	2.0489	1.5708	0	0
15.17	2.60643	1.33945	-0.931903	0.507364	1.07744	0.942456	-0.112876	0.142936	-0.454427	0.206666	-0.0262793	0	0	0.0268595	-0.300497	-0.345879	0.770261	0.114517	0	0	-0.377528	0.0215417	0.0501437	-0.153606	-0.717893	-0.52415	1.76652	0.431376	0	0	0.224694	-0.379214	0.403435	2.04123	1.5708	0	0
15.18	2.60862	1.33935	-0.926173	0.50753	1.0734	0.942321	-0.105079	0.142203	-0.463108	0.21239	-0.028067	0	0	0.0104968	-0.293292	-0.3487	0.760765	0.122938	0	0	-0.377236	0.0213283	0.0448666	-0.13561	-0.714083	-0.517662	1.75041	0.411085	0	0	0.246936	-0.364969	0.448465	2.03078	1.5708	0	0
15.19	2.61555	1.338	-0.925423	0.507502	1.06903	0.942258	-0.0980202	0.140315	-0.472147	0.219734	-0.0292916	0	0	-0.00877068	-0.28474	-0.351792	0.746229	0.134409	0	0	-0.378662	0.0213171	0.0358207	-0.12007	-0.74387	-0.357755	1.69356	1.5708	0	0	0.267554	-0.350242	0.486401	2.01953	1.5708	0	0
15.2	2.61784	1.33812	-0.919492	0.507525	1.06463	0.942131	-0.0900044	0.139425	-0.478843	0.224444	-0.0327501	0	0	-0.0269014	-0.276177	-0.355394	0.725639	0.149181	0	0	-0.379411	0.0206344	0.0279049	-0.0980962	-0.740716	-0.344641	1.67687	1.5708	0	0	0.290727	-0.335116	0.523144	2.0054	1.5708	0	0
15.21	2.62695	1.33697	-0.920043	0.507563	1.05992	0.942089	-0.0836571	0.137897	-0.485973	0.229508	-0.0363047	0	0	-0.0483273	-0.267272	-0.361047	0.696413	0.168813	0	0	-0.385438	0.0184401	0.0118258	-0.0629722	-0.738282	-0.319046	1.65667	1.5708	0	0	0.295031	-0.308551	0.399381	2.05399	0.756334	0	0
15.22	2.63426	1.33761	-0.919544	0.50753	1.05509	0.942094	-0.0749352	0.134766	-0.492862	0.235731	-0.0394735	0	0	-0.0693563	-0.256867	-0.369122	0.656444	0.187616	0	0	-0.387742	0.0159855	0.00161963	-0.0365272	-0.735025	-0.302651	1.63697	1.5708	0	0	0.318256	-0.29427	0.428617	2.03732	0.716952	0	0
15.23	2.64109	1.33886	-0.918541	0.507562	1.04994	0.942143	-0.065216	0.131257	-0.499034	0.241896	-0.0430669	0	0	-0.0887418	-0.246292	-0.37822	0.609661	0.198412	0	0	-0.390402	0.0129396	-0.00953903	-0.00784409	-0.731065	-0.284945	1.61621	1.5708	0	0	0.34267	-0.280915	0.458816	2.02043	0.724758	0	0
15.24	2.6501	1.34117	-0.919718	0.507531	1.04446	0.942234	-0.0544524	0.126392	-0.504861	0.248144	-0.0473231	0	0	-0.105392	-0.234181	-0.386314	0.561291	0.201283	0	0	-0.393376	0.00882298	-0.0217704	0.0230788	-0.726609	-0.265783	1.59402	1.5708	0	0	0.368375	-0.267978	0.486927	2.00155	0.731569	0	0
15.25	2.65961	1.34417	-0.921718	0.507439	1.03872	0.942379	-0.0429241	0.120577	-0.510275	0.254456	-0.0521491	0	0	-0.119121	-0.220907	-0.391399	0.516099	0.203013	0	0	-0.396547	0.00419144	-0.0347886	0.0563479	-0.721488	-0.245091	1.57	1.5708	0	0	0.394758	-0.255404	0.513022	1.9808	0.738396	0	0
15.26	2.66901	1.34724	-0.923984	0.507371	1.03273	0.942645	-0.0312762	0.114462	-0.515032	0.260523	-0.0578501	0	0	-0.129361	-0.208086	-0.394106	0.476989	0.20218	0	0	-0.400525	-0.00048053	-0.048372	0.0917995	-0.715784	-0.222708	1.54437	1.5708	0	0	0.421588	-0.243295	0.536973	1.95849	0.744952	0	0
15.27	2.67573	1.35014	-0.924077	0.507464	1.02653	0.94304	-0.0196555	0.109017	-0.518976	0.26567	-0.06521	0	0	-0.13563	-0.197088	-0.393647	0.444211	0.198217	0	0	-0.405005	-0.00484438	-0.0620015	0.128898	-0.709151	-0.199112	1.5172	1.5708	0	0	0.448874	-0.231772	0.55923	1.93447	0.751221	0	0
15.28	2.67847	1.35236	-0.921582	0.507691	1.02027	0.943573	-0.00837194	0.104487	-0.521687	0.27031	-0.0740046	0	0	-0.139191	-0.187879	-0.391382	0.416332	0.192145	0	0	-0.409875	-0.00836266	-0.0745637	0.166869	-0.702037	-0.174781	1.48903	1.5708	0	0	0.476181	-0.220236	0.579629	1.90827	0.757435	0	0
15.29	2.67544	1.35396	-0.915444	0.508019	1.014	0.944173	0.0029391	0.100941	-0.522093	0.27474	-0.0833927	0	0	-0.141356	-0.179886	-0.387416	0.391033	0.185295	0	0	-0.414624	-0.0106563	-0.0850171	0.2046	-0.694938	-0.150812	1.4611	1.5708	0	0	0.503286	-0.208409	0.598196	1.88014	0.76375	0	0
15.3	2.66735	1.35487	-0.906172	0.508423	1.00771	0.94482	0.0142845	0.0983564	-0.520423	0.279232	-0.093555	0	0	-0.14255	-0.173408	-0.381532	0.3685	0.178273	0	0	-0.419473	-0.0116363	-0.093232	0.241548	-0.688193	-0.127665	1.43418	1.5708	0	0	0.530251	-0.196039	0.614538	1.8508	0.770984	0	0
15.31	2.65491	1.35551	-0.894616	0.508988	1.00136	0.945509	0.0263422	0.096278	-0.515652	0.284665	-0.103727	0	0	-0.14262	-0.168342	-0.374615	0.348468	0.170708	0	0	-0.423959	-0.0120415	-0.0993768	0.278598	-0.681109	-0.104689	1.40658	1.5708	0	0	0.556982	-0.183321	0.628603	1.81985	0.780868	0	0
15.32	2.63784	1.35594	-0.881051	0.509807	0.995031	0.946211	0.039455	0.0947778	-0.506042	0.291453	-0.113901	0	0	-0.141124	-0.165246	-0.37046	0.331763	0.162671	0	0	-0.427901	-0.0120653	-0.102939	0.315264	-0.6738	-0.0820466	1.3794	1.5708	0	0	0.583242	-0.170533	0.640112	1.78843	0.79088	0	0
15.33	2.61983	1.3562	-0.868696	0.510795	0.988708	0.946956	0.0527372	0.0937153	-0.48921	0.298835	-0.12445	0	0	-0.138546	-0.163472	-0.369995	0.318395	0.154585	0	0	-0.431709	-0.0121531	-0.104641	0.351804	-0.666345	-0.0592608	1.35261	1.5708	0	0	0.608778	-0.157859	0.645015	1.75492	0.7233	0	0
